<?xml version="1.0" encoding="utf-8"?>
<!-- Generator: Adobe Illustrator 18.1.1, SVG Export Plug-In . SVG Version: 6.00 Build 0)  -->
<svg version="1.1" id="Layer_1" xmlns="http://www.w3.org/2000/svg" xmlns:xlink="http://www.w3.org/1999/xlink" x="0px" y="0px"
	 viewBox="0 0 300 300" enable-background="new 0 0 300 300" xml:space="preserve">
<path d="M251.4,19.9H48.2C32.6,19.9,20,32.6,20,48.2v203.2c0,15.6,12.7,28.3,28.3,28.3h203.2c15.6,0,28.3-12.7,28.3-28.3V48.2
	C279.7,32.6,267,19.9,251.4,19.9z M214.7,170.7c-10.8,0-21.5,0-32.3,0c0,28.8,0,57.5,0,86.2c-11.1,0-22.2,0-33.3,0
	c0-28.8,0-57.5,0-86.2c-7.7,0-15.3,0-22.9,0c0-10.5,0-20.9,0-31.4c0.3,0,0.6-0.1,0.8-0.1c7.1,0,14.1,0,21.2,0c0.3,0,0.6,0,0.9,0
	c0-0.4,0-0.7,0-1c0-8.4,0-16.8,0-25.2c0-3.1,0.3-6.2,0.9-9.2c2.2-10.6,7.7-18.9,17-24.6c6-3.6,12.6-5.4,19.4-6.2
	c1.8-0.2,3.6-0.3,5.4-0.4c1.7,0,3.5,0,5.2,0c0.3,0,0.6,0.1,0.9,0.1c5.3,0.3,10.6,0.6,15.9,0.9c0.7,0,1.4,0.2,2.1,0.3
	c-0.3,9.8-0.5,19.6-0.7,29.4c-0.4,0-0.7,0-1.1,0c-6.3,0-12.5-0.1-18.8-0.1c-1.6,0-3.2,0.1-4.7,0.4c-4.6,0.7-7,3.1-7.8,7.7
	c-0.3,1.6-0.4,3.3-0.4,5c0,7.4,0,14.7,0,22.1c0,0.2,0,0.5,0,0.8c11.2,0,22.4,0,33.7,0C215.7,149.7,215.2,160.2,214.7,170.7z"/>
</svg>
