<?xml version="1.0" encoding="utf-8"?>
<!-- Generator: Adobe Illustrator 18.1.1, SVG Export Plug-In . SVG Version: 6.00 Build 0)  -->
<svg version="1.1" id="Layer_1" xmlns="http://www.w3.org/2000/svg" xmlns:xlink="http://www.w3.org/1999/xlink" x="0px" y="0px"
	 viewBox="0 0 300 300" enable-background="new 0 0 300 300" xml:space="preserve">
<g>
	<path d="M149.9,115.6c-17.7,0-31.9,14.2-31.9,31.9c0,17.6,14.2,31.8,31.9,31.8c17.7,0,31.9-14.2,31.9-31.9
		C181.7,129.8,167.5,115.6,149.9,115.6z"/>
	<path d="M219.7,108.7c-0.8-6.9-3.3-13-7.7-18.4c-7-8.4-16-12.8-26.9-12.9c-23.2-0.1-46.3,0-69.5,0c-2.6,0-5.2,0.2-7.8,0.8
		c-10.3,2.3-18.1,8-23.4,17.1c-3.3,5.6-4.6,11.8-4.6,18.3c0,11.3,0,22.6,0,33.9c0,11.5,0,23.1,0,34.6c0,2.6,0.3,5.2,0.8,7.8
		c3.5,16,17.5,27.7,34.2,27.7c23.2,0.1,46.4,0,69.6,0c2,0,4.1-0.2,6.1-0.5c6.5-1,12.4-3.8,17.3-8.2c8-7.1,12.1-16.1,12.1-26.9
		c0-23,0-46.1,0-69.1C219.9,111.5,219.9,110.1,219.7,108.7z M149.7,192.1c-24.4,0-44.5-20.1-44.5-44.6c0-24.6,20.1-44.6,44.7-44.6
		c24.5,0,44.6,20.1,44.5,44.6C194.4,172.1,174.4,192.1,149.7,192.1z M197.6,109.2c-5.3,0-9.6-4.3-9.5-9.6c0-5.3,4.3-9.5,9.6-9.5
		c5.3,0,9.6,4.3,9.5,9.6C207.2,105,202.9,109.3,197.6,109.2z"/>
	<path d="M251.4,20H48.3c-15.6,0-28.2,12.6-28.2,28.2v203.1c0,15.6,12.6,28.2,28.2,28.2h203.1c15.6,0,28.2-12.6,28.2-28.2V48.2
		C279.7,32.6,267,20,251.4,20z M232.7,184.4c0,0.2-0.1,0.4-0.1,0.6c-0.3,5.4-1.5,10.6-3.6,15.6c-4.4,10.3-11.4,18.1-21.1,23.6
		c-5.6,3.2-11.6,5.1-18,5.8c-1,0.1-2.1,0.2-3.1,0.3c-24.6,0-49.1,0-73.7,0c-0.7-0.1-1.4-0.1-2.1-0.2c-5.5-0.5-10.7-1.8-15.7-4.1
		c-9.7-4.5-17.2-11.4-22.4-20.8c-3-5.5-4.9-11.4-5.6-17.7c-0.1-1-0.2-2.1-0.3-3.1c0-24.6,0-49.3,0-73.9c0.1-1,0.2-2.1,0.3-3.1
		c0.6-5.2,1.9-10.1,4.1-14.8c4.8-10.3,12.4-18,22.6-23.1c5-2.5,10.3-4,15.8-4.6c1.1-0.1,2.1-0.2,3.2-0.3c24.6,0,49.1,0,73.7,0
		c0.2,0,0.4,0.1,0.7,0.1c4,0.2,8,0.9,11.8,2.2c11.7,3.9,20.7,11.1,27,21.7c3.5,5.8,5.5,12.2,6.2,18.9c0.1,1,0.2,2,0.3,3
		C232.7,135.1,232.7,159.8,232.7,184.4z"/>
</g>
</svg>
