<?xml version="1.0" encoding="utf-8"?>
<!-- Generator: Adobe Illustrator 18.1.1, SVG Export Plug-In . SVG Version: 6.00 Build 0)  -->
<svg version="1.1" id="Layer_1" xmlns="http://www.w3.org/2000/svg" xmlns:xlink="http://www.w3.org/1999/xlink" x="0px" y="0px"
	 viewBox="0 0 300 300" enable-background="new 0 0 300 300" xml:space="preserve">
<path d="M251.7,20.3H49c-15.6,0-28.2,12.6-28.2,28.2v202.7c0,15.6,12.6,28.2,28.2,28.2h202.7c15.6,0,28.2-12.6,28.2-28.2V48.5
	C279.9,32.9,267.3,20.3,251.7,20.3z M107.2,226.1c-0.5,0-0.9,0-1.4,0c-10.6,0-21.1,0-31.7,0c-1.2,0-1.5-0.4-1.5-1.6
	c0-33.7,0-67.5,0-101.2c0-1.2,0.3-1.6,1.5-1.6c10.6,0,21.1,0,31.7,0c0.4,0,0.9,0,1.4,0C107.2,156.7,107.2,191.3,107.2,226.1z
	 M109.3,92.1c-0.8,6.9-4.8,11.7-11.3,14.1c-2.6,0.9-5.4,1.2-8.1,1.8c0-0.1-0.1-0.2-0.1-0.3c-6.8-0.1-12.6-2.3-16.4-8.2
	c-6.5-10.1-1.7-23.3,9.8-26.7c6.7-2,13.2-1.6,19,2.5C108,79.3,110.2,85.2,109.3,92.1z M232.3,224.8c0,0.4,0,0.8-0.1,1.2
	c-11.5,0-23,0-34.6,0c0-0.6,0-1.1,0-1.6c0-17.7,0-35.4,0-53.1c0-4.6-0.3-9.2-1.9-13.6c-2.7-7.6-8.9-11.4-17-10.8
	c-8.3,0.6-14.6,6.5-16.7,13.7c-0.8,2.7-0.8,5.6-0.8,8.4c-0.1,18.4,0,36.8,0,55.3c0,0.6,0,1.1,0,1.8c-11.6,0-23,0-34.6,0
	c0-34.6,0-69.3,0-104.2c0.5,0,0.9,0,1.4,0c10.6,0,21.1,0,31.7,0c1.2,0,1.6,0.4,1.5,1.6c-0.1,3.8,0,7.6,0,11.4c0,0.4,0,0.9,0,1.4
	c2-2.4,3.9-4.7,5.9-6.9c5.2-5.5,11.8-8.5,19.2-9.5c7.2-1,14.4-0.4,21.3,2.2c8.1,3,14.2,8.4,18.4,16c4.9,8.8,6.3,18.5,6.3,28.4
	C232.3,185.8,232.3,205.3,232.3,224.8z"/>
</svg>
