<?xml version="1.0" encoding="utf-8"?>
<!-- Generator: Adobe Illustrator 18.1.1, SVG Export Plug-In . SVG Version: 6.00 Build 0)  -->
<svg version="1.1" id="Layer_1" xmlns="http://www.w3.org/2000/svg" xmlns:xlink="http://www.w3.org/1999/xlink" x="0px" y="0px"
	 viewBox="0 0 300 300" enable-background="new 0 0 300 300" xml:space="preserve">
<path d="M252.5,19.3H48.2c-15.7,0-28.4,12.7-28.4,28.4v204.3c0,15.7,12.7,28.4,28.4,28.4h204.3c15.7,0,28.4-12.7,28.4-28.4V47.7
	C280.9,32,268.1,19.3,252.5,19.3z M236.4,100c-4.1,5.8-9,10.9-14.7,15.1c-0.8,0.6-1.2,1.2-1.2,2.2c-0.3,5.9-0.3,11.9-1.2,17.7
	c-2.9,19.2-10.8,36.2-23.7,50.6c-23.1,25.6-52.3,34.6-85.9,30.4c-11.3-1.4-21.9-5.2-31.8-10.6c-1.8-1-3.6-2.1-5.4-3.2
	c8.9,0.6,17.6-0.1,26.1-2.5c8.5-2.4,16.2-6.3,23.4-11.9c-18.9-0.9-29.2-14.6-31.4-23.5c4.9,0.8,9.7,0.7,14.9-0.7
	c-8.1-1.9-14.6-5.9-19.6-12.1c-4.9-6.2-7.4-13.3-7.4-21.5c4.8,2.4,9.5,4,14.9,4.1c-18.3-13.4-16.7-35.2-10-45
	c18.3,21.5,41.5,33.4,69.8,35.3c-0.2-2.3-0.5-4.2-0.6-6.2c-0.9-14.5,8.2-28.4,21.9-33.3c3-1.1,6.1-1.5,9.2-2.3c1.8,0,3.7,0,5.5,0
	c1.5,0.3,3.1,0.5,4.6,0.8c6.4,1.4,11.9,4.4,16.5,9c0.4,0.4,1.3,0.8,1.8,0.7c4-1.1,8-2.3,11.9-3.7c2.9-1.1,5.7-2.6,8.8-4.1
	c-2.6,7.8-7.4,13.6-14,18.2c6.4-0.6,12.4-2.4,18.5-5C236.9,99.3,236.7,99.6,236.4,100z"/>
</svg>
